<svg width="364" height="100" viewBox="0 0 364 100" fill="none" xmlns="http://www.w3.org/2000/svg">
<path d="M135.48 98L119.34 79.34V98H112.5V56.3H119.34V75.32L135.54 56.3H144.12L126 77.18L144.42 98H135.48ZM173.449 98L157.309 79.34V98H150.469V56.3H157.309V75.32L173.509 56.3H182.089L163.969 77.18L182.389 98H173.449ZM210.758 76.58C212.998 76.98 214.898 78.16 216.458 80.12C218.018 82.08 218.798 84.3 218.798 86.78C218.798 88.9 218.238 90.82 217.118 92.54C216.038 94.22 214.458 95.56 212.378 96.56C210.298 97.52 207.878 98 205.118 98H188.438V56.3H204.338C207.178 56.3 209.618 56.78 211.658 57.74C213.698 58.7 215.238 60 216.278 61.64C217.318 63.24 217.837 65.04 217.837 67.04C217.837 69.44 217.198 71.44 215.918 73.04C214.638 74.64 212.918 75.82 210.758 76.58ZM195.278 73.82H203.738C205.978 73.82 207.718 73.32 208.958 72.32C210.238 71.28 210.878 69.8 210.878 67.88C210.878 66 210.238 64.54 208.958 63.5C207.718 62.42 205.978 61.88 203.738 61.88H195.278V73.82ZM204.518 92.42C206.838 92.42 208.658 91.86 209.978 90.74C211.298 89.62 211.958 88.06 211.958 86.06C211.958 84.02 211.258 82.4 209.858 81.2C208.458 80 206.598 79.4 204.278 79.4H195.278V92.42H204.518ZM240.57 98.54C237.45 98.54 234.63 97.84 232.11 96.44C229.59 95 227.61 93 226.17 90.44C224.73 87.84 224.01 84.84 224.01 81.44C224.01 78.08 224.75 75.1 226.23 72.5C227.71 69.9 229.73 67.9 232.29 66.5C234.85 65.1 237.71 64.4 240.87 64.4C244.03 64.4 246.89 65.1 249.45 66.5C252.01 67.9 254.03 69.9 255.51 72.5C256.99 75.1 257.73 78.08 257.73 81.44C257.73 84.8 256.97 87.78 255.45 90.38C253.93 92.98 251.85 95 249.21 96.44C246.61 97.84 243.73 98.54 240.57 98.54ZM240.57 92.6C242.33 92.6 243.97 92.18 245.49 91.34C247.05 90.5 248.31 89.24 249.27 87.56C250.23 85.88 250.71 83.84 250.71 81.44C250.71 79.04 250.25 77.02 249.33 75.38C248.41 73.7 247.19 72.44 245.67 71.6C244.15 70.76 242.51 70.34 240.75 70.34C238.99 70.34 237.35 70.76 235.83 71.6C234.35 72.44 233.17 73.7 232.29 75.38C231.41 77.02 230.97 79.04 230.97 81.44C230.97 85 231.87 87.76 233.67 89.72C235.51 91.64 237.81 92.6 240.57 92.6ZM278.832 98.54C275.712 98.54 272.892 97.84 270.372 96.44C267.852 95 265.872 93 264.432 90.44C262.992 87.84 262.272 84.84 262.272 81.44C262.272 78.08 263.012 75.1 264.492 72.5C265.972 69.9 267.992 67.9 270.552 66.5C273.112 65.1 275.972 64.4 279.132 64.4C282.292 64.4 285.152 65.1 287.712 66.5C290.272 67.9 292.292 69.9 293.772 72.5C295.252 75.1 295.992 78.08 295.992 81.44C295.992 84.8 295.232 87.78 293.712 90.38C292.192 92.98 290.112 95 287.472 96.44C284.872 97.84 281.992 98.54 278.832 98.54ZM278.832 92.6C280.592 92.6 282.232 92.18 283.752 91.34C285.312 90.5 286.572 89.24 287.532 87.56C288.492 85.88 288.972 83.84 288.972 81.44C288.972 79.04 288.512 77.02 287.592 75.38C286.672 73.7 285.452 72.44 283.932 71.6C282.412 70.76 280.772 70.34 279.012 70.34C277.252 70.34 275.612 70.76 274.092 71.6C272.612 72.44 271.432 73.7 270.552 75.38C269.672 77.02 269.232 79.04 269.232 81.44C269.232 85 270.132 87.76 271.932 89.72C273.772 91.64 276.072 92.6 278.832 92.6ZM315.834 81.5L331.074 98H321.834L309.594 83.78V98H302.754V53.6H309.594V79.4L321.594 64.94H331.074L315.834 81.5ZM347.977 98.54C345.377 98.54 343.037 98.08 340.957 97.16C338.917 96.2 337.297 94.92 336.097 93.32C334.897 91.68 334.257 89.86 334.177 87.86H341.257C341.377 89.26 342.037 90.44 343.237 91.4C344.477 92.32 346.017 92.78 347.857 92.78C349.777 92.78 351.257 92.42 352.297 91.7C353.377 90.94 353.917 89.98 353.917 88.82C353.917 87.58 353.317 86.66 352.117 86.06C350.957 85.46 349.097 84.8 346.537 84.08C344.057 83.4 342.037 82.74 340.477 82.1C338.917 81.46 337.557 80.48 336.397 79.16C335.277 77.84 334.717 76.1 334.717 73.94C334.717 72.18 335.237 70.58 336.277 69.14C337.317 67.66 338.797 66.5 340.717 65.66C342.677 64.82 344.917 64.4 347.437 64.4C351.197 64.4 354.217 65.36 356.497 67.28C358.817 69.16 360.057 71.74 360.217 75.02H353.377C353.257 73.54 352.657 72.36 351.577 71.48C350.497 70.6 349.037 70.16 347.197 70.16C345.397 70.16 344.017 70.5 343.057 71.18C342.097 71.86 341.617 72.76 341.617 73.88C341.617 74.76 341.937 75.5 342.577 76.1C343.217 76.7 343.997 77.18 344.917 77.54C345.837 77.86 347.197 78.28 348.997 78.8C351.397 79.44 353.357 80.1 354.877 80.78C356.437 81.42 357.777 82.38 358.897 83.66C360.017 84.94 360.597 86.64 360.637 88.76C360.637 90.64 360.117 92.32 359.077 93.8C358.037 95.28 356.557 96.44 354.637 97.28C352.757 98.12 350.537 98.54 347.977 98.54Z" fill="#00BF63"/>
<rect width="30" height="100" rx="5" fill="#00BF63"/>
<rect x="34" width="30" height="100" rx="5" fill="#7ED957"/>
<rect x="68" width="30" height="100" rx="5" fill="#C1FF72"/>
</svg>
