<svg width="500" height="500" viewBox="0 0 500 500" fill="none" xmlns="http://www.w3.org/2000/svg">
<rect width="500" height="500" fill="white"/>
<path d="M209.48 298L193.34 279.34V298H186.5V256.3H193.34V275.32L209.54 256.3H218.12L200 277.18L218.42 298H209.48ZM247.449 298L231.309 279.34V298H224.469V256.3H231.309V275.32L247.509 256.3H256.089L237.969 277.18L256.389 298H247.449ZM284.758 276.58C286.998 276.98 288.898 278.16 290.458 280.12C292.018 282.08 292.798 284.3 292.798 286.78C292.798 288.9 292.238 290.82 291.118 292.54C290.038 294.22 288.458 295.56 286.378 296.56C284.298 297.52 281.878 298 279.118 298H262.438V256.3H278.338C281.178 256.3 283.618 256.78 285.658 257.74C287.698 258.7 289.238 260 290.278 261.64C291.318 263.24 291.837 265.04 291.837 267.04C291.837 269.44 291.198 271.44 289.918 273.04C288.638 274.64 286.918 275.82 284.758 276.58ZM269.278 273.82H277.738C279.978 273.82 281.718 273.32 282.958 272.32C284.238 271.28 284.878 269.8 284.878 267.88C284.878 266 284.238 264.54 282.958 263.5C281.718 262.42 279.978 261.88 277.738 261.88H269.278V273.82ZM278.518 292.42C280.838 292.42 282.658 291.86 283.978 290.74C285.298 289.62 285.958 288.06 285.958 286.06C285.958 284.02 285.258 282.4 283.858 281.2C282.458 280 280.598 279.4 278.278 279.4H269.278V292.42H278.518ZM314.57 298.54C311.45 298.54 308.63 297.84 306.11 296.44C303.59 295 301.61 293 300.17 290.44C298.73 287.84 298.01 284.84 298.01 281.44C298.01 278.08 298.75 275.1 300.23 272.5C301.71 269.9 303.73 267.9 306.29 266.5C308.85 265.1 311.71 264.4 314.87 264.4C318.03 264.4 320.89 265.1 323.45 266.5C326.01 267.9 328.03 269.9 329.51 272.5C330.99 275.1 331.73 278.08 331.73 281.44C331.73 284.8 330.97 287.78 329.45 290.38C327.93 292.98 325.85 295 323.21 296.44C320.61 297.84 317.73 298.54 314.57 298.54ZM314.57 292.6C316.33 292.6 317.97 292.18 319.49 291.34C321.05 290.5 322.31 289.24 323.27 287.56C324.23 285.88 324.71 283.84 324.71 281.44C324.71 279.04 324.25 277.02 323.33 275.38C322.41 273.7 321.19 272.44 319.67 271.6C318.15 270.76 316.51 270.34 314.75 270.34C312.99 270.34 311.35 270.76 309.83 271.6C308.35 272.44 307.17 273.7 306.29 275.38C305.41 277.02 304.97 279.04 304.97 281.44C304.97 285 305.87 287.76 307.67 289.72C309.51 291.64 311.81 292.6 314.57 292.6ZM352.832 298.54C349.712 298.54 346.892 297.84 344.372 296.44C341.852 295 339.872 293 338.432 290.44C336.992 287.84 336.272 284.84 336.272 281.44C336.272 278.08 337.012 275.1 338.492 272.5C339.972 269.9 341.992 267.9 344.552 266.5C347.112 265.1 349.972 264.4 353.132 264.4C356.292 264.4 359.152 265.1 361.712 266.5C364.272 267.9 366.292 269.9 367.772 272.5C369.252 275.1 369.992 278.08 369.992 281.44C369.992 284.8 369.232 287.78 367.712 290.38C366.192 292.98 364.112 295 361.472 296.44C358.872 297.84 355.992 298.54 352.832 298.54ZM352.832 292.6C354.592 292.6 356.232 292.18 357.752 291.34C359.312 290.5 360.572 289.24 361.532 287.56C362.492 285.88 362.972 283.84 362.972 281.44C362.972 279.04 362.512 277.02 361.592 275.38C360.672 273.7 359.452 272.44 357.932 271.6C356.412 270.76 354.772 270.34 353.012 270.34C351.252 270.34 349.612 270.76 348.092 271.6C346.612 272.44 345.432 273.7 344.552 275.38C343.672 277.02 343.232 279.04 343.232 281.44C343.232 285 344.132 287.76 345.932 289.72C347.772 291.64 350.072 292.6 352.832 292.6ZM389.834 281.5L405.074 298H395.834L383.594 283.78V298H376.754V253.6H383.594V279.4L395.594 264.94H405.074L389.834 281.5ZM421.977 298.54C419.377 298.54 417.037 298.08 414.957 297.16C412.917 296.2 411.297 294.92 410.097 293.32C408.897 291.68 408.257 289.86 408.177 287.86H415.257C415.377 289.26 416.037 290.44 417.237 291.4C418.477 292.32 420.017 292.78 421.857 292.78C423.777 292.78 425.257 292.42 426.297 291.7C427.377 290.94 427.917 289.98 427.917 288.82C427.917 287.58 427.317 286.66 426.117 286.06C424.957 285.46 423.097 284.8 420.537 284.08C418.057 283.4 416.037 282.74 414.477 282.1C412.917 281.46 411.557 280.48 410.397 279.16C409.277 277.84 408.717 276.1 408.717 273.94C408.717 272.18 409.237 270.58 410.277 269.14C411.317 267.66 412.797 266.5 414.717 265.66C416.677 264.82 418.917 264.4 421.437 264.4C425.197 264.4 428.217 265.36 430.497 267.28C432.817 269.16 434.057 271.74 434.217 275.02H427.377C427.257 273.54 426.657 272.36 425.577 271.48C424.497 270.6 423.037 270.16 421.197 270.16C419.397 270.16 418.017 270.5 417.057 271.18C416.097 271.86 415.617 272.76 415.617 273.88C415.617 274.76 415.937 275.5 416.577 276.1C417.217 276.7 417.997 277.18 418.917 277.54C419.837 277.86 421.197 278.28 422.997 278.8C425.397 279.44 427.357 280.1 428.877 280.78C430.437 281.42 431.777 282.38 432.897 283.66C434.017 284.94 434.597 286.64 434.637 288.76C434.637 290.64 434.117 292.32 433.077 293.8C432.037 295.28 430.557 296.44 428.637 297.28C426.757 298.12 424.537 298.54 421.977 298.54Z" fill="#00BF63"/>
<rect x="74" y="200" width="30" height="100" rx="5" fill="#00BF63"/>
<rect x="108" y="200" width="30" height="100" rx="5" fill="#7ED957"/>
<rect x="142" y="200" width="30" height="100" rx="5" fill="#C1FF72"/>
</svg>
